<!--?xml version="1.0" encoding="utf-8"?-->
<!-- Generator: Adobe Illustrator 18.1.1, SVG Export Plug-In . SVG Version: 6.00 Build 0)  -->

<svg version="1.1" id="_x32_" xmlns="http://www.w3.org/2000/svg" xmlns:xlink="http://www.w3.org/1999/xlink" x="0px" y="0px" viewBox="0 0 512 512" style="width: 256px; height: 256px; opacity: 1;" xml:space="preserve">
<style type="text/css">
	.st0{fill:#4B4B4B;}
</style>
<g>
	<path class="st0" d="M70.197,185.232v-53.55c7.925-2.2,13.768-9.392,13.768-18.021c0-3.203-0.88-6.172-2.294-8.812l50.778-43.315
		l-5.257-15.258l-57.655,49.18c-1.401-0.337-2.838-0.557-4.341-0.557c-10.366,0-18.769,8.402-18.769,18.761
		c0,6.68,3.504,12.501,8.754,15.829v55.742H32.387v35.434h447.226v-35.434H70.197z M73.326,113.661c0,2.581-1.268,4.774-3.13,6.262
		l0,0c-0.675,0.543-1.43,0.989-2.244,1.32c-0.865,0.316-1.774,0.557-2.757,0.557c-4.494,0-8.131-3.637-8.131-8.138
		c0-0.88,0.242-1.694,0.506-2.492l0,0c0.448-1.364,1.188-2.558,2.236-3.497c0.704-0.631,1.503-1.158,2.39-1.532
		c0.931-0.367,1.936-0.601,2.999-0.601c1.041,0,2.024,0.234,2.94,0.594c0.55,0.228,1.034,0.572,1.518,0.917
		c0.256,0.176,0.543,0.322,0.777,0.52c0.638,0.579,1.195,1.238,1.628,1.986c0,0,0.008,0.022,0.015,0.037
		c0.454,0.8,0.784,1.686,0.96,2.624l0,0C73.129,112.701,73.326,113.148,73.326,113.661z" style="fill: rgb(192, 0, 0);"></path>
	<path class="st0" d="M280.106,424.248h129.982v-56.952H280.106V424.248z M345.284,379.687c7.148,0,12.933,5.792,12.933,12.94
		c0,7.141-5.785,12.926-12.933,12.926c-7.141,0-12.926-5.784-12.926-12.926C332.359,385.479,338.143,379.687,345.284,379.687z" style="fill: rgb(192, 0, 0);"></path>
	<polygon class="st0" points="422.134,288.013 422.134,512 466.578,512 466.578,233.701 422.134,233.701 	" style="fill: rgb(192, 0, 0);"></polygon>
	<polygon class="st0" points="45.422,512 89.867,512 89.867,288.013 89.867,233.701 45.422,233.701 	" style="fill: rgb(192, 0, 0);"></polygon>
	<rect x="102.902" y="233.701" class="st0" width="307.186" height="54.312" style="fill: rgb(192, 0, 0);"></rect>
	<path class="st0" d="M280.106,355.302h129.982v-56.951H280.106V355.302z M345.284,310.741c7.148,0,12.933,5.792,12.933,12.94
		c0,7.141-5.785,12.926-12.933,12.926c-7.141,0-12.926-5.784-12.926-12.926C332.359,316.533,338.143,310.741,345.284,310.741z" style="fill: rgb(192, 0, 0);"></path>
	<polygon class="st0" points="141.225,51.167 157.86,99.482 226.366,30.975 178.058,14.333 173.381,19.01 154.37,0 126.899,27.478 
		145.909,46.482 	" style="fill: rgb(192, 0, 0);"></polygon>
</g>
</svg>
