<svg xmlns="http://www.w3.org/2000/svg" xmlns:xlink="http://www.w3.org/1999/xlink" version="1.1" width="146.245pt" height="142.928pt" viewBox="0 0 146.245 142.928">
<path transform="matrix(1,0,0,-1,74.781,71.464)" stroke-width="1.19553" stroke-linecap="butt" stroke-dasharray="2.98883,1.99255,.3985,1.99255" stroke-miterlimit="10" stroke-linejoin="miter" fill="none" stroke="#000000" d="M42.52022 0C42.52022 23.48355 23.48355 42.52022 0 42.52022-23.48355 42.52022-42.52022 23.48355-42.52022 0-42.52022-23.48355-23.48355-42.52022 0-42.52022 23.48355-42.52022 42.52022-23.48355 42.52022 0ZM0 0"/>
<path transform="matrix(1,0,0,-1,74.781,71.464)" stroke-width="1.19553" stroke-linecap="butt" stroke-dasharray="2.98883,1.99255,.3985,1.99255" stroke-miterlimit="10" stroke-linejoin="miter" fill="none" stroke="#000000" d="M14.17339 0C14.17339 7.82784 7.82784 14.17339 0 14.17339-7.82784 14.17339-14.17339 7.82784-14.17339 0-14.17339-7.82784-7.82784-14.17339 0-14.17339 7.82784-14.17339 14.17339-7.82784 14.17339 0ZM0 0"/>
<path transform="matrix(1,0,0,-1,74.781,71.464)" stroke-width="1.19553" stroke-linecap="butt" stroke-miterlimit="10" stroke-linejoin="miter" fill="none" stroke="#000000" d="M22.67754 0H70.86703"/>
<path transform="matrix(1,0,0,-1,74.781,71.464)" stroke-width="1.19553" stroke-linecap="butt" stroke-miterlimit="10" stroke-linejoin="miter" fill="none" stroke="#000000" d="M19.63937 11.33876 61.37283 35.4335"/>
<path transform="matrix(1,0,0,-1,74.781,71.464)" stroke-width="1.19553" stroke-linecap="butt" stroke-miterlimit="10" stroke-linejoin="miter" fill="none" stroke="#000000" d="M11.33876 19.63937 35.4335 61.37283"/>
<path transform="matrix(1,0,0,-1,74.781,71.464)" stroke-width="1.19553" stroke-linecap="butt" stroke-miterlimit="10" stroke-linejoin="miter" fill="none" stroke="#000000" d="M0 22.67754V70.86703"/>
<path transform="matrix(1,0,0,-1,74.781,71.464)" stroke-width="1.19553" stroke-linecap="butt" stroke-miterlimit="10" stroke-linejoin="miter" fill="none" stroke="#000000" d="M-11.33876 19.63937-35.4335 61.37283"/>
<path transform="matrix(1,0,0,-1,74.781,71.464)" stroke-width="1.19553" stroke-linecap="butt" stroke-miterlimit="10" stroke-linejoin="miter" fill="none" stroke="#000000" d="M-19.63937 11.33876-61.37283 35.4335"/>
<path transform="matrix(1,0,0,-1,74.781,71.464)" stroke-width="1.19553" stroke-linecap="butt" stroke-miterlimit="10" stroke-linejoin="miter" fill="none" stroke="#000000" d="M-22.67754 0H-70.86703"/>
<path transform="matrix(1,0,0,-1,74.781,71.464)" stroke-width="1.19553" stroke-linecap="butt" stroke-miterlimit="10" stroke-linejoin="miter" fill="none" stroke="#000000" d="M-19.63937-11.33876-61.37283-35.4335"/>
<path transform="matrix(1,0,0,-1,74.781,71.464)" stroke-width="1.19553" stroke-linecap="butt" stroke-miterlimit="10" stroke-linejoin="miter" fill="none" stroke="#000000" d="M-11.33876-19.63937-35.4335-61.37283"/>
<path transform="matrix(1,0,0,-1,74.781,71.464)" stroke-width="1.19553" stroke-linecap="butt" stroke-miterlimit="10" stroke-linejoin="miter" fill="none" stroke="#000000" d="M0-22.67754V-70.86703"/>
<path transform="matrix(1,0,0,-1,74.781,71.464)" stroke-width="1.19553" stroke-linecap="butt" stroke-miterlimit="10" stroke-linejoin="miter" fill="none" stroke="#000000" d="M11.33876-19.63937 35.4335-61.37283"/>
<path transform="matrix(1,0,0,-1,74.781,71.464)" stroke-width="1.19553" stroke-linecap="butt" stroke-miterlimit="10" stroke-linejoin="miter" fill="none" stroke="#000000" d="M19.63937-11.33876 61.37283-35.4335"/>
<path transform="matrix(1,0,0,-1,74.781,71.464)" stroke-width="1.19553" stroke-linecap="butt" stroke-miterlimit="10" stroke-linejoin="miter" fill="none" stroke="#000000" d="M27.38095 7.3367 54.76192 14.67342"/>
<path transform="matrix(1,0,0,-1,74.781,71.464)" stroke-width="1.19553" stroke-linecap="butt" stroke-miterlimit="10" stroke-linejoin="miter" fill="none" stroke="#000000" d="M20.04422 20.04422 40.08847 40.08847"/>
<path transform="matrix(1,0,0,-1,74.781,71.464)" stroke-width="1.19553" stroke-linecap="butt" stroke-miterlimit="10" stroke-linejoin="miter" fill="none" stroke="#000000" d="M7.3367 27.38095 14.67342 54.76192"/>
<path transform="matrix(1,0,0,-1,74.781,71.464)" stroke-width="1.19553" stroke-linecap="butt" stroke-miterlimit="10" stroke-linejoin="miter" fill="none" stroke="#000000" d="M-7.3367 27.38095-14.67342 54.76192"/>
<path transform="matrix(1,0,0,-1,74.781,71.464)" stroke-width="1.19553" stroke-linecap="butt" stroke-miterlimit="10" stroke-linejoin="miter" fill="none" stroke="#000000" d="M-20.04422 20.04422-40.08847 40.08847"/>
<path transform="matrix(1,0,0,-1,74.781,71.464)" stroke-width="1.19553" stroke-linecap="butt" stroke-miterlimit="10" stroke-linejoin="miter" fill="none" stroke="#000000" d="M-27.38095 7.3367-54.76192 14.67342"/>
<path transform="matrix(1,0,0,-1,74.781,71.464)" stroke-width="1.19553" stroke-linecap="butt" stroke-miterlimit="10" stroke-linejoin="miter" fill="none" stroke="#000000" d="M-27.38095-7.3367-54.76192-14.67342"/>
<path transform="matrix(1,0,0,-1,74.781,71.464)" stroke-width="1.19553" stroke-linecap="butt" stroke-miterlimit="10" stroke-linejoin="miter" fill="none" stroke="#000000" d="M-20.04422-20.04422-40.08847-40.08847"/>
<path transform="matrix(1,0,0,-1,74.781,71.464)" stroke-width="1.19553" stroke-linecap="butt" stroke-miterlimit="10" stroke-linejoin="miter" fill="none" stroke="#000000" d="M-7.3367-27.38095-14.67342-54.76192"/>
<path transform="matrix(1,0,0,-1,74.781,71.464)" stroke-width="1.19553" stroke-linecap="butt" stroke-miterlimit="10" stroke-linejoin="miter" fill="none" stroke="#000000" d="M7.3367-27.38095 14.67342-54.76192"/>
<path transform="matrix(1,0,0,-1,74.781,71.464)" stroke-width="1.19553" stroke-linecap="butt" stroke-miterlimit="10" stroke-linejoin="miter" fill="none" stroke="#000000" d="M20.04422-20.04422 40.08847-40.08847"/>
<path transform="matrix(1,0,0,-1,74.781,71.464)" stroke-width="1.19553" stroke-linecap="butt" stroke-miterlimit="10" stroke-linejoin="miter" fill="none" stroke="#000000" d="M27.38095-7.3367 54.76192-14.67342"/>
</svg>
